<?xml version="1.0" standalone="no"?>
<!DOCTYPE svg PUBLIC "-//W3C//DTD SVG 20010904//EN"
 "http://www.w3.org/TR/2001/REC-SVG-20010904/DTD/svg10.dtd">
<svg version="1.0" xmlns="http://www.w3.org/2000/svg"
 width="8334.000000pt" height="8334.000000pt" viewBox="0 0 8334.000000 8334.000000"
 preserveAspectRatio="xMidYMid meet">

<g transform="translate(0.000000,8334.000000) scale(0.100000,-0.100000)"
fill="#000000" stroke="none">
<path d="M28342 46425 c-155 -35 -428 -242 -504 -382 -49 -89 -104 -358 -115
-553 -16 -312 72 -565 286 -822 112 -133 213 -225 531 -481 728 -587 1093
-907 1510 -1326 628 -631 1003 -1144 1355 -1856 540 -1092 824 -2329 927
-4035 16 -265 16 -1108 0 -1355 -64 -983 -211 -1768 -482 -2569 -349 -1032
-905 -1987 -1630 -2796 -515 -575 -1055 -1045 -1771 -1539 -114 -78 -239 -169
-278 -202 -203 -171 -338 -408 -385 -679 -13 -74 -15 -1034 -21 -7640 -5
-5338 -3 -7604 4 -7722 29 -449 109 -572 419 -641 97 -22 100 -22 1317 -21
671 1 1906 7 2745 13 4723 35 5932 44 9880 81 1427 13 1728 23 2290 71 2044
174 4087 761 6075 1744 2790 1381 5010 3416 6607 6060 678 1122 1269 2407
1693 3680 1090 3268 1195 6660 314 10176 -320 1280 -723 2372 -1295 3509 -807
1607 -1871 3058 -3210 4380 -1657 1635 -3572 2850 -5784 3672 -1875 696 -3890
1074 -6335 1188 -907 42 -2722 52 -8760 49 -2783 -2 -5118 0 -5190 4 -98 5
-146 3 -193 -8z m11773 -4925 c743 -5 1492 -15 1665 -20 696 -23 1156 -66
1705 -160 2372 -408 4225 -1085 5745 -2099 1584 -1057 2848 -2516 3691 -4256
683 -1413 1099 -2971 1223 -4590 110 -1428 3 -3024 -310 -4595 -453 -2274
-1551 -4244 -3224 -5780 -608 -558 -1314 -1065 -2080 -1493 -232 -129 -765
-395 -1010 -503 -2116 -932 -4567 -1376 -7244 -1313 -284 7 -1581 11 -3506 10
-3055 -2 -3327 1 -3445 32 -137 37 -201 105 -239 253 -40 159 -59 512 -51 954
3 190 9 5473 13 11740 7 10631 9 11400 25 11476 44 212 125 287 352 326 136
23 4442 35 6690 18z"/>
<path d="M8697 46419 c-306 -12 -403 -40 -500 -149 -48 -53 -80 -124 -100
-220 -19 -87 -17 -33677 1 -33815 41 -302 136 -384 480 -416 167 -16 3916 -16
4132 -1 314 23 407 76 457 261 17 63 18 401 23 7041 5 5484 9 6992 19 7054 36
232 111 308 341 347 46 8 841 14 2675 19 1597 5 2715 12 2880 19 443 18 707
31 950 47 1548 101 2798 335 4030 754 2011 685 3513 1718 4598 3162 394 524
750 1148 1025 1793 796 1868 1010 3863 646 6020 -215 1273 -558 2324 -1047
3210 -567 1028 -1368 1922 -2372 2650 -717 520 -1556 962 -2550 1343 -1420
545 -2932 848 -4365 877 -427 9 -11106 12 -11323 4z m10218 -4658 c420 -12
634 -23 950 -52 1002 -89 1911 -309 2690 -649 683 -298 1217 -721 1623 -1284
494 -686 828 -1670 938 -2756 21 -214 29 -732 15 -950 -58 -866 -274 -1658
-676 -2475 -177 -360 -343 -594 -615 -865 -328 -328 -640 -538 -1155 -778
-997 -464 -2101 -699 -3525 -752 -803 -29 -2569 -37 -4585 -20 -801 7 -963 11
-1031 24 -100 19 -160 44 -208 86 -93 82 -123 189 -137 495 -6 144 -9 1841 -6
4890 4 5169 -2 4772 67 4911 46 95 110 135 261 166 125 25 4541 32 5394 9z"/>
<path d="M61960 46410 c-4479 -5 -4799 -6 -4850 -22 -201 -63 -315 -182 -355
-373 -36 -170 -4 -4151 36 -4417 28 -196 121 -453 224 -626 110 -185 486 -693
1166 -1577 622 -808 802 -1054 1026 -1405 934 -1458 1576 -3167 1962 -5220
201 -1070 327 -2114 383 -3175 15 -298 15 -1179 0 -1455 -44 -781 -129 -1423
-273 -2075 -66 -302 -119 -497 -505 -1869 -340 -1206 -619 -2053 -864 -2626
-552 -1289 -1361 -2511 -2665 -4025 -100 -116 -200 -235 -222 -265 -139 -186
-247 -462 -272 -695 -6 -49 -15 -403 -22 -785 -13 -793 -5 -3219 12 -3444 26
-350 112 -466 384 -522 134 -28 855 -36 2575 -30 981 3 1682 10 1753 16 289
25 383 89 435 299 15 61 17 619 22 7341 5 6994 6 7277 23 7334 40 129 100 218
189 280 109 74 233 99 553 111 88 3 356 17 595 31 239 13 566 27 725 31 342 7
3796 -9 10010 -47 1474 -9 1680 -9 1756 5 254 44 371 180 385 449 7 143 52
1837 64 2421 13 624 13 1255 0 1366 -27 234 -108 340 -294 385 -67 17 -399 18
-5881 16 -6211 -2 -7670 4 -7790 32 -221 51 -289 142 -315 419 -14 152 -24
7093 -12 8222 10 947 11 967 60 1061 27 53 87 109 142 133 25 11 82 26 127 35
80 15 145 19 803 51 173 9 438 22 589 30 655 35 1009 37 5116 32 2715 -3 4171
-8 4395 -15 1966 -67 2844 -77 3047 -38 305 59 397 188 433 601 6 66 15 543
20 1060 9 840 20 1330 35 1570 3 44 12 188 21 320 19 280 15 564 -10 663 -66
261 -229 361 -641 391 -145 11 -4371 11 -14095 1z"/>
<path d="M2518 9162 c-56 -86 -78 -130 -78 -158 0 -21 79 -104 99 -104 29 1
105 40 139 73 46 44 42 71 -24 169 -31 46 -61 88 -67 95 -9 9 -25 -8 -69 -75z"/>
</g>
</svg>
